<svg width="80" height="80" xmlns="http://www.w3.org/2000/svg">
 <!-- Created with Method Draw - http://github.com/duopixel/Method-Draw/ -->
 <g id="Layer_1">
  <title>Layer 1</title>
  <path id="svg_8" d="m121.83544,38.10127c5.7384,38.71308 0.88608,7.97468 4.68354,12.78481" opacity="NaN" fill-opacity="null" stroke-dasharray="null" stroke-width="2" stroke="#d64242" fill="#fff"/>
  <path id="svg_9" d="m120.56962,36.32911c9.74684,19.36709 -4.17722,7.59494 -0.12658,14.93671" opacity="NaN" fill-opacity="null" stroke-dasharray="null" stroke-width="2" stroke="#d64242" fill="#fff"/>
  <path id="svg_10" d="m37.1519,0.37975" opacity="NaN" fill-opacity="null" stroke-dasharray="null" stroke-width="20" stroke="#ffffff" fill="#fff"/>
  <path id="svg_11" d="m120.31645,38.22785c0,0 -0.63291,5.94937 3.03797,10" opacity="NaN" fill-opacity="null" stroke-dasharray="null" stroke-width="2" stroke="#d64242" fill="#fff"/>
  <path id="svg_12" d="m119.30379,38.48101c7.72152,13.79747 -1.51899,3.29114 2.27848,8.60759c3.79747,5.31646 4.93671,6.20253 9.24051,10.12658c4.3038,3.92405 9.74684,4.3038 15.06329,4.68354c5.31646,0.37975 5.18987,10.50633 -1.39241,12.40506c-6.58228,1.89873 -12.53165,6.70886 -19.74684,2.78481c-7.21519,-3.92405 -11.13924,-6.58228 -9.36709,-9.24051c1.77215,-2.65823 -1.51899,-5.6962 4.81013,-4.3038c6.32911,1.39241 12.40506,2.53165 12.78481,6.96203c0.37975,4.43038 1.01266,5.6962 1.26582,10.50633c0.25316,4.81013 0.63291,6.96203 -0.25316,9.11392c-0.88608,2.1519 -3.92405,5.44304 -4.05063,6.83544c-0.12658,1.39241 -4.3038,8.48101 -4.36709,8.48101" opacity="NaN" fill-opacity="null" stroke-dasharray="null" stroke-width="2" stroke="#d64242" fill="#fff"/>
  <path id="svg_13" d="m100.6962,13.41772c0,3.16456 12.27848,15.06329 12.78481,15.06329c0.50633,0 12.65823,18.60759 11.26582,20c-1.39241,1.39241 -11.89873,9.87342 -13.92405,12.27848c-2.02532,2.40506 0.63291,19.87342 0.75949,20" opacity="NaN" fill-opacity="null" stroke-dasharray="null" stroke-width="20" stroke="#d64242" fill="#fff"/>
  <path id="svg_15" d="m99.17722,54.3038c65.6962,-15.56962 11.89873,13.41772 43.92405,8.22785" opacity="NaN" fill-opacity="null" stroke-opacity="null" stroke-dasharray="null" stroke-width="2" stroke="#d64242" fill="#fff"/>
  <path id="svg_16" d="m113.86076,7.59494c33.03797,45.18987 -7.21519,1.64557 2.27848,12.91139" opacity="NaN" fill-opacity="null" stroke-opacity="null" stroke-dasharray="null" stroke-width="2" stroke="#d64242" fill="#fff"/>
  <path id="svg_17" d="m126.89873,9.11392c-1.26582,22.65823 1.01266,31.77215 0.37975,17.08861l-0.6962,-14.68354" opacity="NaN" fill-opacity="null" stroke-opacity="null" stroke-dasharray="null" stroke-width="2" stroke="#d64242" fill="#fff"/>
  <path stroke="#d64242" id="svg_18" d="m38.93498,0.37975l0.30965,19.24051c0.06193,0 2.41531,11.77215 -6.75048,11.89873c-9.16579,0.12658 -11.14758,-14.93671 -0.24772,-14.81013c10.89985,0.12658 8.17489,8.10127 8.11296,8.10127c0.06193,0 0.30965,25.6962 0.24772,25.6962" opacity="NaN" fill-opacity="null" stroke-opacity="null" stroke-dasharray="null" stroke-width="5" fill="#fff"/>
  <ellipse stroke="#d64242" ry="7.32557" rx="3.02325" id="svg_19" cy="58.7209" cx="40.75581" opacity="undefined" stroke-opacity="null" stroke-dasharray="null" stroke-width="5" fill="#0fffff"/>
 </g>
</svg>